<?xml version="1.0" standalone="no"?>
<!DOCTYPE svg PUBLIC "-//W3C//DTD SVG 20010904//EN"
 "http://www.w3.org/TR/2001/REC-SVG-20010904/DTD/svg10.dtd">
<svg version="1.0" xmlns="http://www.w3.org/2000/svg"
 width="2501.000000pt" height="2501.000000pt" viewBox="0 0 2501.000000 2501.000000"
 preserveAspectRatio="xMidYMid meet">
<metadata>
Created by potrace 1.16, written by Peter Selinger 2001-2019
</metadata>
<g transform="translate(0.000000,2501.000000) scale(0.100000,-0.100000)"
fill="#000000" stroke="none">
<path d="M12030 25003 c-1801 -78 -3444 -489 -5008 -1253 -2794 -1367 -4981
-3719 -6133 -6598 -434 -1082 -709 -2212 -828 -3392 -70 -693 -80 -1512 -25
-2225 222 -2931 1477 -5688 3544 -7789 938 -953 1971 -1719 3145 -2333 2537
-1327 5478 -1734 8319 -1153 2050 420 3988 1370 5586 2740 271 233 438 388
715 665 614 613 1098 1204 1575 1920 1563 2345 2279 5139 2044 7975 -228 2751
-1354 5326 -3228 7385 -302 331 -843 850 -1191 1141 -954 798 -1991 1437
-3110 1916 -1396 599 -2835 926 -4385 998 -190 9 -844 11 -1020 3z m840 -73
c962 -30 1794 -145 2704 -375 1965 -496 3728 -1437 5264 -2811 222 -198 711
-686 906 -904 363 -404 806 -960 875 -1099 45 -89 100 -236 126 -335 24 -88
48 -227 41 -234 -2 -2 -74 53 -159 121 -510 410 -1026 672 -1492 758 -60 12
-119 23 -131 25 -14 2 -40 35 -79 101 -410 694 -1037 1410 -1710 1953 -696
561 -1499 967 -2458 1241 l-187 53 -77 106 c-108 148 -371 408 -543 537 -228
170 -465 309 -725 424 -117 51 -174 69 -350 110 -503 116 -994 188 -1560 229
-244 18 -921 24 -1200 11 -806 -38 -1604 -152 -2294 -327 l-213 -54 -132 -99
c-298 -225 -514 -454 -672 -711 -54 -89 -134 -252 -134 -276 0 -5 -55 -23
-122 -38 -577 -132 -1305 -404 -1813 -678 -865 -467 -1653 -1158 -2294 -2013
-88 -118 -373 -538 -383 -565 -2 -4 -46 -16 -98 -24 -365 -62 -795 -252 -1210
-534 -163 -110 -370 -271 -444 -344 l-58 -59 6 68 c9 92 51 258 91 362 70 182
111 253 261 451 789 1044 1757 1974 2839 2725 1998 1387 4375 2158 6810 2208
66 2 161 4 210 5 50 1 232 -3 405 -8z m-3167 -1440 c422 -25 970 -124 1480
-266 451 -126 971 -312 1337 -479 220 -100 200 -99 456 -34 88 22 229 55 315
74 l156 35 84 -19 c46 -11 102 -23 124 -27 l40 -7 -61 -13 c-215 -45 -550
-188 -823 -349 -51 -30 -97 -55 -103 -55 -5 0 -69 33 -141 74 -599 334 -1323
594 -2177 781 -419 92 -917 170 -1285 200 -143 12 -138 17 45 47 96 16 216 32
265 37 50 4 96 9 103 10 7 0 90 -4 185 -9z m6931 -181 c949 -241 1794 -632
2470 -1142 667 -504 1233 -1181 1595 -1907 48 -96 102 -213 121 -260 18 -47
44 -98 56 -113 27 -33 35 -57 74 -244 75 -357 104 -669 104 -1098 0 -407 -25
-723 -89 -1142 -50 -323 -155 -797 -230 -1039 l-25 -81 -107 -12 c-452 -49
-1401 -263 -2113 -476 -402 -120 -696 -225 -1105 -393 -220 -91 -452 -134
-596 -112 -41 6 -96 14 -124 17 -46 5 -65 18 -260 173 -672 534 -1261 963
-1745 1270 -375 239 -1095 666 -1780 1057 -120 69 -154 106 -223 243 l-42 85
2 150 c5 375 74 2755 93 3205 18 413 32 538 81 696 20 63 20 64 97 109 112 65
395 204 562 275 722 308 1676 571 2726 750 126 21 235 39 243 39 7 1 104 -22
215 -50z m-7744 -72 c1042 -25 2153 -293 3215 -776 300 -137 415 -200 452
-248 41 -55 71 -137 90 -243 30 -168 5 -1148 -82 -3195 -28 -638 -31 -664 -89
-770 -33 -60 -33 -60 -207 -159 -550 -311 -1340 -778 -1729 -1021 -565 -354
-1133 -765 -1948 -1412 l-193 -153 -92 14 c-133 22 -251 58 -425 132 -415 175
-875 328 -1472 488 -584 156 -1259 300 -1600 340 -282 34 -349 58 -453 164
l-59 59 -44 174 c-116 460 -197 962 -235 1459 -16 201 -15 726 0 905 42 487
134 921 237 1127 358 715 901 1373 1549 1879 617 482 1413 871 2299 1125 212
61 520 133 526 124 3 -4 120 -10 260 -13z m-5010 -3405 c-78 -184 -134 -530
-147 -899 l-6 -181 -36 28 c-52 41 -146 86 -221 105 -81 21 -229 15 -310 -12
-30 -11 -167 -63 -305 -117 -696 -271 -828 -327 -916 -391 -27 -19 -49 -33
-49 -30 0 7 82 162 224 420 147 269 173 301 336 416 302 213 714 423 1360 693
47 19 88 35 92 36 3 0 -7 -31 -22 -68z m-1616 -339 c-21 -70 -33 -216 -25
-310 l6 -81 -74 -124 c-198 -329 -501 -922 -684 -1338 -546 -1237 -844 -2384
-897 -3448 l-12 -223 -92 -93 c-89 -89 -269 -306 -325 -390 -25 -38 -26 -39
-30 -15 -6 46 42 508 85 804 262 1817 908 3521 1920 5063 73 111 135 202 138
202 2 0 -2 -21 -10 -47z m20663 -185 c814 -1239 1403 -2629 1727 -4073 87
-386 157 -791 205 -1177 34 -270 65 -587 58 -594 -2 -3 -30 30 -62 73 -98 130
-218 274 -297 353 l-75 75 -6 187 c-33 914 -276 1953 -709 3038 -240 602 -595
1327 -886 1810 l-76 125 3 115 c2 103 -9 223 -25 264 -16 41 15 0 143 -196z
m-10337 -1550 c55 -16 200 -93 292 -155 92 -62 171 -124 165 -130 -6 -5 -248
-77 -397 -117 -69 -19 -181 -50 -250 -69 -69 -19 -143 -39 -165 -44 -22 -6
-94 -27 -160 -48 -66 -20 -151 -46 -190 -56 -85 -22 -249 -86 -336 -130 -191
-96 -825 -473 -1579 -939 -118 -73 -309 -192 -425 -263 -115 -71 -253 -155
-305 -187 -52 -31 -147 -88 -210 -127 -63 -38 -126 -75 -140 -82 -68 -33 200
185 530 433 980 733 2616 1769 3020 1912 64 23 79 23 150 2z m8279 -1647 c621
-473 1387 -1574 2145 -3081 79 -157 169 -340 200 -407 l56 -122 0 -163 c0
-486 -93 -1279 -231 -1972 -84 -420 -219 -926 -337 -1261 -155 -438 -350 -831
-552 -1107 -88 -121 -306 -343 -507 -515 -130 -112 -154 -128 -280 -188 -998
-479 -1989 -761 -2963 -845 -278 -23 -571 33 -691 133 -15 12 -98 128 -186
257 -303 447 -1008 1497 -1363 2030 -773 1163 -857 1305 -916 1539 l-24 96
110 233 c297 628 564 1272 758 1827 288 827 532 1633 652 2155 17 74 36 147
41 162 15 38 149 163 235 221 156 103 243 142 745 336 893 346 1285 468 1870
585 342 69 895 142 1087 145 l73 1 78 -59z m-15974 14 c738 -77 1446 -244
2161 -510 420 -156 973 -376 1079 -430 l120 -60 31 -155 c103 -498 290 -1158
553 -1950 304 -911 541 -1500 950 -2361 l121 -252 -11 -71 c-25 -159 -105
-343 -246 -570 -306 -488 -2149 -3250 -2222 -3329 -14 -16 -63 -47 -109 -70
l-83 -41 -117 2 c-381 7 -916 83 -1400 198 -633 150 -1330 406 -1930 708 -139
70 -155 82 -297 209 -325 291 -482 487 -685 856 -415 753 -762 2038 -895 3311
-43 412 -21 1019 44 1231 22 68 309 627 491 954 502 900 996 1602 1447 2052
177 177 199 192 356 242 203 65 308 71 642 36z m-4245 -2357 c89 -225 221
-464 367 -661 93 -125 290 -322 401 -401 81 -58 235 -142 299 -164 29 -10 32
-15 37 -64 3 -29 8 -137 11 -239 19 -662 186 -1678 405 -2474 183 -664 386
-1176 650 -1635 150 -261 341 -563 458 -723 l35 -49 -31 -111 c-37 -134 -66
-278 -89 -447 -25 -177 -25 -728 0 -915 46 -348 112 -639 211 -940 31 -92 54
-170 51 -173 -2 -2 -41 1 -87 7 -342 49 -653 186 -861 378 -54 50 -179 224
-379 528 -1122 1702 -1807 3667 -1988 5700 -39 441 -45 609 -44 1170 l1 550
31 95 c37 113 111 246 215 384 79 107 243 296 255 296 4 0 28 -51 52 -112z
m23994 -97 c127 -157 248 -359 272 -455 4 -17 9 -23 14 -16 4 7 7 -1 8 -17 0
-15 6 -172 12 -348 19 -481 -3 -1084 -61 -1635 -194 -1869 -816 -3679 -1812
-5275 -1039 -1665 -2476 -3076 -4161 -4089 -520 -313 -1201 -654 -1690 -848
l-50 -19 76 79 c92 96 183 217 320 422 l103 155 185 80 c962 419 1791 933
2536 1572 505 433 981 954 1281 1403 l71 106 90 17 c173 33 333 97 474 190
102 66 190 140 243 204 39 47 38 46 -39 -20 -145 -123 -286 -202 -461 -256
-88 -27 -265 -64 -272 -57 -2 2 21 77 52 167 274 823 318 1621 129 2326 l-35
132 79 113 c184 264 425 665 555 924 223 443 440 1148 591 1919 125 641 218
1390 242 1953 l7 162 81 44 c311 170 581 465 799 876 46 88 147 314 171 384 6
16 15 10 64 -44 31 -35 88 -102 126 -149z m-9536 -3470 c109 -94 162 -162 443
-566 1045 -1497 1764 -2587 1942 -2941 93 -185 127 -356 127 -632 l0 -171 -41
-93 c-310 -708 -1138 -1811 -2170 -2890 -99 -102 -179 -191 -179 -197 0 -23
-212 -116 -440 -193 -599 -202 -1286 -289 -2165 -275 -1151 19 -2130 161
-2597 377 -48 23 -583 598 -913 982 -879 1024 -1427 1875 -1582 2456 -25 95
-25 98 -9 177 42 214 132 386 509 973 345 538 1258 1879 1769 2599 105 148
287 314 440 402 54 30 55 30 144 21 155 -16 741 -59 954 -70 1105 -57 2301
-30 3425 79 288 28 262 31 343 -38z m-12413 -5222 c186 -134 458 -240 720
-279 l80 -12 67 -102 c309 -475 852 -1059 1423 -1532 697 -577 1539 -1087
2410 -1460 l170 -72 114 -167 c133 -194 252 -338 339 -412 34 -29 61 -53 59
-53 -2 0 -71 27 -153 59 -354 140 -777 335 -1156 533 -1618 844 -3070 2075
-4173 3537 l-78 104 64 -54 c35 -30 87 -70 114 -90z m12723 -2457 c340 -299
776 -536 1297 -705 251 -82 569 -157 788 -188 48 -7 87 -15 87 -19 0 -18 -111
-223 -162 -300 -62 -92 -156 -210 -240 -303 l-53 -58 -240 -90 c-1400 -524
-2864 -789 -4370 -789 -1431 0 -2830 240 -4168 716 l-242 86 -63 62 c-79 76
-193 215 -265 323 -53 81 -142 242 -135 247 1 2 53 11 113 20 556 88 1130 283
1561 532 207 119 378 245 556 407 l88 79 152 -51 c521 -173 1226 -269 2228
-302 771 -26 1507 21 2080 132 300 58 645 156 835 238 39 16 71 30 73 30 2 1
38 -29 80 -67z"/>
</g>
</svg>
